<svg xmlns="http://www.w3.org/2000/svg" xmlns:xlink="http://www.w3.org/1999/xlink" width="500" zoomAndPan="magnify" viewBox="0 0 375 374.999991" height="500" preserveAspectRatio="xMidYMid meet" version="1.0"><defs><clipPath id="53f51bd955"><path d="M 46.671875 0 L 328.671875 0 L 328.671875 375 L 46.671875 375 Z M 46.671875 0 " clip-rule="nonzero"/></clipPath></defs><rect x="-37.5" width="450" fill="#ffffff" y="-37.499999" height="449.999989" fill-opacity="1"/><rect x="-37.5" width="450" fill="#ffffff" y="-37.499999" height="449.999989" fill-opacity="1"/><g clip-path="url(#53f51bd955)"><path fill="#332c54" d="M 328.671875 145.109375 C 329.113281 225.878906 263.4375 291.765625 182.644531 291.765625 L 155.324219 291.765625 L 155.324219 306.4375 C 155.324219 307.558594 155.296875 308.679688 155.242188 309.796875 C 155.1875 310.917969 155.101562 312.035156 154.992188 313.148438 C 154.882812 314.265625 154.746094 315.375 154.582031 316.484375 C 154.417969 317.59375 154.226562 318.695312 154.007812 319.796875 C 153.789062 320.894531 153.542969 321.988281 153.269531 323.074219 C 152.996094 324.160156 152.695312 325.242188 152.371094 326.3125 C 152.046875 327.386719 151.695312 328.449219 151.316406 329.503906 C 150.9375 330.558594 150.535156 331.605469 150.105469 332.640625 C 149.675781 333.675781 149.222656 334.699219 148.742188 335.710938 C 148.261719 336.722656 147.757812 337.726562 147.230469 338.714844 C 146.699219 339.703125 146.148438 340.675781 145.570312 341.636719 C 144.992188 342.597656 144.394531 343.542969 143.769531 344.476562 C 143.148438 345.40625 142.503906 346.324219 141.832031 347.222656 C 141.164062 348.125 140.476562 349.007812 139.765625 349.875 C 139.050781 350.738281 138.320312 351.585938 137.566406 352.417969 C 136.8125 353.25 136.039062 354.058594 135.246094 354.851562 C 134.453125 355.644531 133.640625 356.417969 132.808594 357.167969 C 131.980469 357.921875 131.128906 358.652344 130.261719 359.363281 C 129.394531 360.074219 128.511719 360.765625 127.609375 361.433594 C 126.710938 362.101562 125.792969 362.746094 124.859375 363.367188 C 123.925781 363.992188 122.980469 364.589844 122.019531 365.167969 C 121.054688 365.742188 120.082031 366.292969 119.089844 366.824219 C 118.101562 367.351562 117.101562 367.855469 116.085938 368.335938 C 115.070312 368.8125 114.046875 369.269531 113.011719 369.695312 C 111.972656 370.125 110.925781 370.527344 109.871094 370.90625 C 108.816406 371.285156 107.75 371.636719 106.675781 371.960938 C 105.601562 372.289062 104.523438 372.585938 103.433594 372.859375 C 102.347656 373.132812 101.253906 373.378906 100.152344 373.597656 C 99.050781 373.816406 97.945312 374.007812 96.835938 374.171875 C 95.726562 374.335938 94.613281 374.472656 93.496094 374.582031 C 92.382812 374.695312 91.261719 374.777344 90.140625 374.832031 C 89.023438 374.886719 87.902344 374.914062 86.777344 374.914062 L 46.671875 374.914062 L 46.671875 134.886719 C 46.671875 133.800781 46.695312 132.714844 46.75 131.628906 C 46.800781 130.542969 46.882812 129.460938 46.988281 128.378906 C 47.09375 127.296875 47.226562 126.222656 47.386719 125.144531 C 47.546875 124.070312 47.730469 123 47.945312 121.9375 C 48.15625 120.871094 48.394531 119.8125 48.660156 118.757812 C 48.921875 117.703125 49.210938 116.65625 49.527344 115.617188 C 49.84375 114.578125 50.183594 113.546875 50.550781 112.523438 C 50.917969 111.5 51.308594 110.488281 51.722656 109.484375 C 52.140625 108.480469 52.582031 107.484375 53.046875 106.503906 C 53.511719 105.523438 54 104.550781 54.511719 103.59375 C 55.023438 102.636719 55.558594 101.691406 56.117188 100.757812 C 56.679688 99.828125 57.257812 98.910156 57.863281 98.003906 C 58.46875 97.101562 59.09375 96.214844 59.742188 95.339844 C 60.390625 94.46875 61.058594 93.613281 61.75 92.773438 C 62.4375 91.933594 63.148438 91.109375 63.878906 90.304688 C 64.609375 89.5 65.359375 88.714844 66.128906 87.945312 C 66.898438 87.175781 67.683594 86.429688 68.492188 85.699219 C 69.296875 84.96875 70.121094 84.257812 70.960938 83.570312 C 71.800781 82.882812 72.65625 82.210938 73.53125 81.566406 C 74.40625 80.917969 75.292969 80.292969 76.199219 79.6875 C 77.101562 79.085938 78.023438 78.503906 78.953125 77.945312 C 79.886719 77.386719 80.832031 76.851562 81.792969 76.339844 C 82.75 75.828125 83.722656 75.339844 84.707031 74.875 C 85.691406 74.410156 86.683594 73.96875 87.6875 73.554688 C 88.695312 73.136719 89.707031 72.746094 90.730469 72.382812 C 91.757812 72.015625 92.789062 71.675781 93.828125 71.359375 C 94.871094 71.042969 95.917969 70.753906 96.972656 70.488281 C 98.027344 70.226562 99.089844 69.988281 100.15625 69.777344 C 101.222656 69.5625 102.292969 69.378906 103.371094 69.21875 C 104.445312 69.058594 105.527344 68.925781 106.609375 68.820312 C 107.691406 68.714844 108.773438 68.632812 109.863281 68.582031 C 110.949219 68.527344 112.035156 68.5 113.121094 68.5 L 177.90625 68.5 C 219.207031 68.5 252.8125 102.074219 252.769531 143.328125 C 252.769531 184.445312 218.40625 218.097656 177.234375 218.097656 L 120.09375 218.097656 L 120.09375 121.269531 C 121.167969 121.269531 122.238281 121.324219 123.308594 121.425781 C 124.378906 121.53125 125.4375 121.691406 126.492188 121.898438 C 127.542969 122.109375 128.585938 122.367188 129.613281 122.679688 C 130.640625 122.992188 131.648438 123.351562 132.640625 123.761719 C 133.632812 124.171875 134.601562 124.628906 135.550781 125.136719 C 136.496094 125.640625 137.417969 126.191406 138.308594 126.789062 C 139.203125 127.382812 140.0625 128.023438 140.894531 128.703125 C 141.722656 129.382812 142.519531 130.101562 143.277344 130.859375 C 144.039062 131.617188 144.757812 132.414062 145.4375 133.242188 C 146.121094 134.070312 146.757812 134.929688 147.355469 135.824219 C 147.953125 136.714844 148.503906 137.632812 149.011719 138.578125 C 149.515625 139.523438 149.976562 140.492188 150.386719 141.484375 C 150.796875 142.476562 151.15625 143.484375 151.46875 144.507812 C 151.78125 145.535156 152.042969 146.574219 152.25 147.625 C 152.460938 148.679688 152.617188 149.738281 152.722656 150.804688 C 152.828125 151.871094 152.882812 152.941406 152.882812 154.015625 L 152.882812 185.335938 L 177.90625 185.335938 C 179.292969 185.332031 180.671875 185.265625 182.046875 185.125 C 183.421875 184.988281 184.789062 184.785156 186.144531 184.511719 C 187.5 184.238281 188.839844 183.902344 190.164062 183.496094 C 191.484375 183.09375 192.785156 182.625 194.0625 182.09375 C 195.339844 181.5625 196.585938 180.96875 197.804688 180.316406 C 199.023438 179.660156 200.203125 178.949219 201.351562 178.179688 C 202.5 177.40625 203.605469 176.582031 204.671875 175.703125 C 205.742188 174.824219 206.761719 173.894531 207.734375 172.914062 C 208.710938 171.933594 209.636719 170.910156 210.507812 169.839844 C 211.382812 168.765625 212.203125 167.65625 212.964844 166.503906 C 213.730469 165.355469 214.4375 164.167969 215.082031 162.949219 C 215.730469 161.726562 216.316406 160.476562 216.839844 159.199219 C 217.363281 157.921875 217.824219 156.621094 218.21875 155.296875 C 218.617188 153.972656 218.945312 152.632812 219.210938 151.277344 C 219.472656 149.921875 219.671875 148.554688 219.800781 147.179688 C 219.929688 145.804688 219.992188 144.425781 219.984375 143.046875 C 219.851562 119.84375 200.65625 101.246094 177.425781 101.246094 L 113.121094 101.246094 C 112.019531 101.246094 110.917969 101.300781 109.820312 101.40625 C 108.722656 101.515625 107.632812 101.675781 106.550781 101.890625 C 105.46875 102.105469 104.402344 102.375 103.347656 102.695312 C 102.289062 103.011719 101.253906 103.382812 100.234375 103.804688 C 99.214844 104.226562 98.21875 104.699219 97.246094 105.21875 C 96.273438 105.738281 95.328125 106.300781 94.414062 106.914062 C 93.496094 107.527344 92.609375 108.183594 91.757812 108.882812 C 90.90625 109.582031 90.089844 110.320312 89.308594 111.097656 C 88.53125 111.878906 87.789062 112.691406 87.089844 113.542969 C 86.390625 114.398438 85.734375 115.28125 85.121094 116.195312 C 84.511719 117.113281 83.945312 118.058594 83.425781 119.027344 C 82.90625 120 82.433594 120.996094 82.011719 122.011719 C 81.589844 123.03125 81.222656 124.066406 80.902344 125.121094 C 80.582031 126.175781 80.3125 127.242188 80.101562 128.324219 C 79.886719 129.40625 79.722656 130.492188 79.617188 131.589844 C 79.507812 132.6875 79.457031 133.785156 79.457031 134.886719 L 79.457031 342.171875 L 86.777344 342.171875 C 87.949219 342.171875 89.121094 342.113281 90.285156 341.996094 C 91.453125 341.882812 92.609375 341.710938 93.757812 341.484375 C 94.90625 341.253906 96.042969 340.972656 97.164062 340.632812 C 98.285156 340.292969 99.386719 339.898438 100.46875 339.449219 C 101.550781 339.003906 102.609375 338.503906 103.644531 337.949219 C 104.675781 337.398438 105.679688 336.796875 106.65625 336.148438 C 107.628906 335.5 108.570312 334.800781 109.472656 334.058594 C 110.378906 333.316406 111.246094 332.53125 112.074219 331.703125 C 112.902344 330.878906 113.691406 330.011719 114.433594 329.105469 C 115.175781 328.203125 115.875 327.261719 116.523438 326.289062 C 117.175781 325.316406 117.777344 324.316406 118.328125 323.28125 C 118.882812 322.25 119.382812 321.195312 119.832031 320.113281 C 120.277344 319.03125 120.671875 317.929688 121.011719 316.8125 C 121.355469 315.691406 121.636719 314.558594 121.867188 313.410156 C 122.09375 312.261719 122.265625 311.105469 122.382812 309.941406 C 122.496094 308.777344 122.554688 307.609375 122.554688 306.4375 L 122.554688 259.019531 L 182.664062 259.019531 C 244.957031 259.019531 295.644531 208.535156 295.902344 146.390625 C 296.136719 83.933594 244.441406 32.828125 181.902344 32.828125 L 113.832031 32.828125 C 111.9375 32.832031 110.042969 32.914062 108.15625 33.082031 C 106.265625 33.246094 104.390625 33.496094 102.523438 33.828125 C 100.65625 34.15625 98.808594 34.570312 96.976562 35.0625 C 95.148438 35.558594 93.339844 36.128906 91.5625 36.78125 C 89.78125 37.433594 88.03125 38.164062 86.316406 38.96875 C 84.601562 39.773438 82.925781 40.652344 81.285156 41.605469 C 79.648438 42.558594 78.054688 43.578125 76.503906 44.671875 C 74.957031 45.765625 73.457031 46.921875 72.011719 48.148438 C 70.566406 49.371094 69.175781 50.65625 67.839844 52 C 66.507812 53.347656 65.234375 54.75 64.023438 56.207031 C 62.8125 57.664062 61.671875 59.171875 60.59375 60.730469 C 59.515625 62.289062 58.507812 63.890625 57.570312 65.535156 C 56.632812 67.183594 55.769531 68.867188 54.984375 70.589844 C 54.195312 72.3125 53.484375 74.066406 52.847656 75.847656 C 52.214844 77.632812 51.660156 79.441406 51.183594 81.277344 C 50.710938 83.109375 50.316406 84.960938 50.003906 86.828125 C 50.003906 29.046875 81.871094 0.0859375 149.0625 0.0859375 L 181.847656 0.0859375 C 262.3125 0.0859375 328.226562 64.75 328.671875 145.109375 Z M 328.671875 145.109375 " fill-opacity="1" fill-rule="nonzero"/></g></svg>